<?xml version="1.0" encoding="UTF-8"?>
<svg width="53px" height="50px" viewBox="0 0 53 50" version="1.1" xmlns="http://www.w3.org/2000/svg" xmlns:xlink="http://www.w3.org/1999/xlink">
    <!-- Generator: Sketch 57.1 (83088) - https://sketch.com -->
    <title>Slice 1</title>
    <desc>Created with Sketch.</desc>
    <g id="Page-1" stroke="none" stroke-width="1" fill="none" fill-rule="evenodd">
        <g id="subscribed" fill="#A21116">
            <path d="M7.195,46.174 C7.195,46.174 5.761,45.739 5.565,47.348 C5.478,48.021 5.717,48.586 6.478,49.195 C6.63,49.304 6.891,49.391 7.087,49.391 C9.977,49.63 13.324,44.631 15.497,40.914 C16.476,39.197 16.867,38.654 17.324,38.654 C17.541,38.654 18.345,38.545 19.214,40.11 C20.388,42.175 26.344,48.087 33.907,46.456 C34.211,45.717 32.864,45.131 31.973,44.674 C31.973,44.674 28.865,42.174 32.863,41.023 C36.863,40.11 38.797,41.588 42.21,38.806 C42.362,37.915 40.427,37.458 40.427,37.458 C40.427,37.458 38.058,36.002 45.013,33.938 C48.426,33.046 48.426,32.459 47.861,32.025 C47.252,31.568 45.622,30.981 47.991,29.351 C50.512,27.743 52.142,25.526 51.991,24.787 C51.555,24.222 50.512,24.352 49.186,25.091 C47.708,25.831 45.774,25.396 44.731,23.766 C43.709,22.136 42.644,22.44 41.319,23.483 C39.993,24.505 37.319,25.983 36.124,23.483 C35.385,20.679 35.668,21.418 37.754,17.571 C39.841,13.746 40.275,10.66 40.275,10.073 C40.275,9.486 39.993,9.182 38.058,10.073 C36.428,10.507 36.276,2.27 36.124,1.075 C36.124,1.075 36.124,-1.142 34.798,0.792 C33.755,2.118 29.604,6.095 28.256,6.53 C26.952,6.965 25.018,5.791 25.3,4.183 C25.3,2.553 24.257,3.139 23.8,4.183 C23.366,5.204 20.236,15.223 19.519,15.811 C18.759,16.398 18.171,17.875 16.845,15.376 C15.52,12.855 13.172,6.921 10.999,9.856 C10.412,9.29 6.609,4.16 3.5,4.03 C3.044,4.616 3.783,6.094 4.392,6.529 C4.978,7.268 4.978,9.333 4.392,10.789 C3.782,12.267 3.782,14.179 4.544,15.962 C4.978,16.853 4.392,18.309 1.849,18.613 C-0.651,18.918 -0.216,19.635 0.827,20.961 C1.849,22.287 5.717,25.525 6.608,26.699 C7.478,27.894 6.456,29.35 4.674,29.502 C2.892,29.655 1.284,29.068 0.827,30.111 C0.675,31.133 2.153,30.698 2.761,31.567 C2.761,31.567 6.021,37.457 10.325,37.175 C14.607,36.892 14.802,37.435 14.325,39.24 C13.89,40.783 10.434,45.782 7.195,46.173" id="Path"></path>
        </g>
    </g>
</svg>